<svg xmlns="http://www.w3.org/2000/svg" viewBox="0 0 146 146"><defs><style>.cls-1{fill:#002d20;}.cls-2{fill:#fff;}</style></defs><title>db logo</title><g id="Layer_2" data-name="Layer 2"><g id="Layer_1-2" data-name="Layer 1"><circle class="cls-1" cx="73" cy="73" r="73"/><path class="cls-2" d="M70.13,72.51c0,8.9-.08,17.81.05,26.71,0,2.52-.64,3.9-3.32,4-7.24.16-14.6,1.23-21.71.32C36.06,102.33,29.65,96.38,29,86c-.42-6.6.49-12.77,5.21-17.86,5-5.37,11.34-7.13,18.31-6.57,3.57.29,4.27-.95,4.1-4.1-.22-4,0-8-.08-12-.05-2.28.62-3.45,3.15-3.27a55.06,55.06,0,0,0,7.49,0c2.31-.15,3,.76,3,3C70.08,54.27,70.13,63.39,70.13,72.51ZM56.55,83c0-2.5-.06-5,0-7.49S55.4,72.2,53.22,72c-5.94-.43-10.68,4.17-10.94,10.68a10.31,10.31,0,0,0,10.55,11c2.47,0,3.92-.82,3.75-3.62C56.43,87.73,56.55,85.34,56.55,83Z"/><path class="cls-2" d="M75.83,45.15c0-2.23.7-3.14,3-3a55.06,55.06,0,0,0,7.49,0c2.53-.18,3.2,1,3.15,3.27-.1,4,.14,8-.08,12-.17,3.15.53,4.39,4.1,4.1,7-.56,13.35,1.2,18.31,6.57,4.72,5.09,5.63,11.26,5.21,17.86-.67,10.37-7.08,16.32-16.17,17.49-7.11.91-14.47-.16-21.71-.32-2.68-.06-3.36-1.44-3.32-4,.13-8.9.05-17.81.05-26.71C75.87,63.39,75.92,54.27,75.83,45.15Zm13.59,45c-.17,2.8,1.28,3.61,3.75,3.62a10.31,10.31,0,0,0,10.55-11c-.26-6.51-5-11.11-10.94-10.68-2.18.17-3.44,1-3.35,3.43s0,5,0,7.49S89.57,87.73,89.42,90.11Z"/></g></g></svg>